<?xml version="1.0" standalone="no"?>
<!DOCTYPE svg PUBLIC "-//W3C//DTD SVG 20010904//EN"
 "http://www.w3.org/TR/2001/REC-SVG-20010904/DTD/svg10.dtd">
<svg version="1.0" xmlns="http://www.w3.org/2000/svg"
 width="512.000000pt" height="512.000000pt" viewBox="0 0 512.000000 512.000000"
 preserveAspectRatio="xMidYMid meet">
<metadata>
Created by potrace 1.14, written by Peter Selinger 2001-2017
</metadata>
<g transform="translate(0.000000,512.000000) scale(0.100000,-0.100000)"
fill="#000000" stroke="none">
<path d="M425 4935 l-25 -24 0 -856 c0 -470 -2 -855 -5 -855 -3 0 -54 18 -114
40 -124 46 -139 48 -169 20 -29 -27 -37 -63 -20 -97 11 -23 35 -36 161 -83
l147 -55 0 -348 0 -348 -40 -159 -40 -159 0 -733 0 -733 45 -175 c33 -133 49
-179 66 -192 20 -17 62 -18 569 -18 507 0 549 1 569 18 17 13 33 59 66 192
l45 175 0 608 0 607 415 0 c392 0 415 -1 415 -18 0 -10 14 -170 30 -357 17
-187 30 -342 30 -346 0 -4 -26 -5 -58 -2 -155 14 -283 -66 -323 -203 -12 -41
-20 -49 -69 -72 -128 -63 -207 -187 -196 -309 10 -112 68 -200 168 -254 56
-30 71 -33 144 -34 73 0 87 3 155 37 72 36 75 36 94 19 11 -10 36 -27 55 -37
33 -18 78 -19 923 -22 l887 -2 25 24 c14 14 25 37 25 51 l0 25 48 -34 c133
-96 305 -84 417 29 77 76 112 198 86 300 -12 46 -11 47 27 91 73 82 80 194 20
306 -56 106 -148 162 -268 162 -84 1 -133 -19 -184 -72 -25 -27 -31 -29 -52
-20 -13 6 -24 14 -24 17 0 3 20 236 45 518 l45 511 36 79 c34 72 37 85 37 173
1 97 -24 201 -58 246 -12 16 -14 187 -15 1182 l0 1163 -25 24 -24 25 -2031 0
-2031 0 -24 -25z m3975 -1171 c0 -983 -1 -1036 -17 -1029 -10 4 -32 11 -49 16
-31 9 -32 11 -36 73 -5 77 -35 128 -103 170 l-45 29 0 66 c0 84 -23 134 -84
188 -113 100 -266 99 -354 -1 -24 -28 -39 -36 -65 -36 -125 0 -246 -113 -277
-258 -11 -47 -12 -48 -78 -77 -48 -21 -86 -48 -133 -95 -37 -36 -71 -73 -76
-83 -9 -18 -13 -18 -64 9 -81 41 -171 44 -272 10 l-77 -26 -879 0 -879 0 -11
98 c-18 154 -22 171 -39 192 -10 12 -79 45 -157 74 l-140 54 -3 831 -2 831
1920 0 1920 0 0 -1036z m-459 -597 c46 -31 57 -65 40 -125 -33 -113 -21 -140
74 -167 86 -26 102 -52 69 -122 -20 -42 -100 -105 -128 -101 -12 2 -54 44 -99
101 -94 117 -110 121 -196 57 -65 -49 -99 -52 -134 -10 -40 47 -51 92 -37 150
14 59 42 98 84 115 26 11 35 10 67 -7 33 -17 41 -18 66 -6 15 7 39 34 53 59
14 26 31 54 39 63 19 23 62 20 102 -7z m-3291 -239 c30 -11 60 -25 67 -32 6
-6 14 -48 18 -93 l7 -83 -91 0 -91 0 0 121 c0 111 1 121 18 114 9 -4 42 -16
72 -27z m2800 -239 c62 -77 172 -100 271 -58 l50 22 17 -24 c65 -93 133 -139
207 -139 58 0 105 20 172 72 50 38 56 40 100 34 118 -16 188 -98 207 -244 l7
-53 -51 37 c-119 85 -271 85 -383 -1 l-47 -36 -47 36 c-112 86 -274 86 -386 0
l-47 -36 -47 36 c-112 86 -274 86 -386 0 l-46 -35 -56 39 c-108 76 -228 80
-357 13 -18 -9 -6 58 18 106 44 88 131 145 224 145 65 0 84 -8 156 -74 40 -36
62 -49 85 -49 34 0 79 38 79 67 0 32 47 117 81 149 19 18 52 41 74 52 l40 21
18 -22 c9 -12 31 -38 47 -58z m-1972 -529 l20 -80 -498 0 -498 0 20 80 20 80
458 0 458 0 20 -80z m682 -160 l0 -80 -240 0 -240 0 0 48 c0 26 -4 62 -9 80
l-10 32 250 0 249 0 0 -80z m1480 -490 c98 -14 191 -46 252 -86 60 -40 108
-103 108 -144 0 -41 -48 -104 -108 -144 -233 -153 -705 -109 -826 77 -33 52
-33 82 0 134 81 124 339 197 574 163z m1174 -584 c38 -29 66 -81 66 -123 0
-37 -32 -68 -87 -82 -80 -22 -98 -91 -37 -146 90 -82 28 -238 -100 -252 -86
-10 -160 52 -175 147 -10 65 -26 81 -91 91 -130 20 -192 154 -117 253 58 76
147 85 217 22 28 -25 50 -36 70 -36 40 0 80 39 80 79 0 45 52 85 102 78 21 -3
54 -17 72 -31z m-2259 -62 c44 -20 62 -49 80 -126 14 -63 19 -69 85 -111 41
-26 80 -97 80 -145 0 -76 -64 -149 -139 -159 -35 -5 -44 -2 -71 25 -18 18 -30
41 -30 57 0 36 -41 75 -80 75 -36 0 -80 -38 -80 -69 0 -22 -82 -75 -133 -87
-102 -22 -207 84 -182 183 11 45 87 110 149 128 66 19 81 35 95 104 15 69 37
107 75 125 40 20 109 20 151 0z m-1077 -464 l-20 -80 -458 0 -458 0 -20 80
-20 80 498 0 498 0 -20 -80z"/>
<path d="M2331 4630 c-299 -63 -530 -275 -623 -570 -20 -64 -23 -96 -23 -220
0 -124 3 -156 23 -220 85 -271 281 -467 552 -552 64 -20 96 -23 220 -23 166 0
236 16 371 86 154 80 266 195 344 354 66 133 80 195 80 360 0 119 -4 151 -24
215 -85 274 -273 463 -546 550 -79 25 -294 37 -374 20z m347 -184 c103 -35
175 -80 257 -161 149 -148 215 -373 169 -578 -45 -198 -169 -355 -349 -441
-181 -87 -377 -85 -560 4 -177 87 -299 246 -339 443 -20 96 -20 158 0 254 50
245 244 443 486 498 92 22 243 13 336 -19z"/>
<path d="M2185 4215 l-25 -24 0 -351 0 -351 25 -24 c14 -15 35 -25 52 -25 18
0 139 64 328 173 321 184 331 192 309 255 -8 22 -64 58 -309 199 -189 109
-310 173 -328 173 -17 0 -38 -10 -52 -25z"/>
</g>
</svg>
